<?xml version="1.0" standalone="no"?>
<!DOCTYPE svg PUBLIC "-//W3C//DTD SVG 20010904//EN"
 "http://www.w3.org/TR/2001/REC-SVG-20010904/DTD/svg10.dtd">
<svg version="1.0" xmlns="http://www.w3.org/2000/svg"
 width="150.000000pt" height="150.000000pt" viewBox="0 0 150.000000 150.000000"
 preserveAspectRatio="xMidYMid meet">

<g transform="translate(0.000000,150.000000) scale(0.100000,-0.100000)"
fill="#b89c00" stroke="none">
<path d="M10 1375 c0 -3 24 -43 52 -90 l52 -85 208 0 208 0 0 -511 0 -510 -50
27 c-195 106 -333 406 -288 625 8 41 18 82 22 92 7 15 0 17 -87 17 l-94 0 -12
-57 c-67 -336 148 -670 509 -786 41 -13 101 -27 133 -31 l57 -6 -2 657 -3 658
-352 3 c-194 1 -353 0 -353 -3z"/>
<path d="M787 1373 c-4 -3 -7 -301 -7 -660 l0 -654 57 7 c78 9 194 48 273 91
277 151 420 429 369 720 l-11 63 -95 0 c-87 0 -94 -2 -88 -17 4 -10 14 -52 23
-93 24 -124 -10 -291 -85 -420 -37 -64 -139 -167 -198 -201 -27 -16 -53 -29
-57 -29 -5 0 -8 230 -8 510 l0 510 213 0 213 0 52 85 c28 47 52 87 52 90 0 8
-696 6 -703 -2z"/>
</g>
</svg>
